<?xml version="1.0" encoding="iso-8859-1"?>
<!-- Generator: Adobe Illustrator 19.0.0, SVG Export Plug-In . SVG Version: 6.00 Build 0)  -->
<svg version="1.1" id="Capa_1" xmlns="http://www.w3.org/2000/svg" xmlns:xlink="http://www.w3.org/1999/xlink" x="0px" y="0px"
	 viewBox="0 0 463.042 463.042" style="enable-background:new 0 0 463.042 463.042;" xml:space="preserve">
<g>
	<path d="M175.542,279.021h16c12.958,0,23.5-10.542,23.5-23.5v-48c0-12.958-10.542-23.5-23.5-23.5h-16
		c-12.958,0-23.5,10.542-23.5,23.5v48C152.042,268.479,162.584,279.021,175.542,279.021z M191.542,264.021h-16
		c-4.687,0-8.5-3.813-8.5-8.5v-16.5h33v16.5C200.042,260.208,196.229,264.021,191.542,264.021z M175.542,199.021h16
		c4.687,0,8.5,3.813,8.5,8.5v16.5h-33v-16.5C167.042,202.834,170.855,199.021,175.542,199.021z"/>
	<path d="M103.542,279.021h16c12.958,0,23.5-10.542,23.5-23.5v-48c0-12.958-10.542-23.5-23.5-23.5h-16
		c-12.958,0-23.5,10.542-23.5,23.5v48C80.042,268.479,90.584,279.021,103.542,279.021z M119.542,264.021h-16
		c-4.687,0-8.5-3.813-8.5-8.5v-16.5h33v16.5C128.042,260.208,124.229,264.021,119.542,264.021z M103.542,199.021h16
		c4.687,0,8.5,3.813,8.5,8.5v16.5h-33v-16.5C95.042,202.834,98.855,199.021,103.542,199.021z"/>
	<path d="M271.542,279.021h16c12.958,0,23.5-10.542,23.5-23.5v-48c0-12.958-10.542-23.5-23.5-23.5h-16
		c-12.958,0-23.5,10.542-23.5,23.5v48C248.042,268.479,258.584,279.021,271.542,279.021z M287.542,264.021h-16
		c-4.687,0-8.5-3.813-8.5-8.5v-16.5h33v16.5C296.042,260.208,292.229,264.021,287.542,264.021z M271.542,199.021h16
		c4.687,0,8.5,3.813,8.5,8.5v16.5h-33v-16.5C263.042,202.834,266.855,199.021,271.542,199.021z"/>
	<path d="M343.542,279.021h16c12.958,0,23.5-10.542,23.5-23.5v-48c0-12.958-10.542-23.5-23.5-23.5h-16
		c-12.958,0-23.5,10.542-23.5,23.5v48C320.042,268.479,330.584,279.021,343.542,279.021z M359.542,264.021h-16
		c-4.687,0-8.5-3.813-8.5-8.5v-16.5h33v16.5C368.042,260.208,364.229,264.021,359.542,264.021z M343.542,199.021h16
		c4.687,0,8.5,3.813,8.5,8.5v16.5h-33v-16.5C335.042,202.834,338.855,199.021,343.542,199.021z"/>
	<path d="M231.542,223.021c4.143,0,7.5-3.357,7.5-7.5v-8c0-4.143-3.357-7.5-7.5-7.5s-7.5,3.357-7.5,7.5v8
		C224.042,219.664,227.399,223.021,231.542,223.021z"/>
	<path d="M231.542,263.021c4.143,0,7.5-3.357,7.5-7.5v-8c0-4.143-3.357-7.5-7.5-7.5s-7.5,3.357-7.5,7.5v8
		C224.042,259.664,227.399,263.021,231.542,263.021z"/>
	<path d="M423.5,152.021H39.542c-4.143,0-7.5,3.357-7.5,7.5v144c0,4.143,3.357,7.5,7.5,7.5H423.5c4.143,0,7.5-3.357,7.5-7.5v-144
		C431,155.378,427.643,152.021,423.5,152.021z M416,296.021H47.042v-129H416V296.021z"/>
	<path d="M423.542,120.021h-248.5v-8.5c0-8.547-6.953-15.5-15.5-15.5h-16c-8.547,0-15.5,6.953-15.5,15.5v8.5h-17v-8.5
		c0-8.547-6.953-15.5-15.5-15.5h-32c-8.547,0-15.5,6.953-15.5,15.5v8.5H39.5c-21.78,0-39.5,17.72-39.5,39.5v144
		c0,19.216,13.795,35.262,32,38.777v9.223c0,8.547,6.953,15.5,15.5,15.5h31.48c7.876,0,15.186-3.912,19.554-10.466l9.022-13.534
		h247.972l9.023,13.535c4.369,6.553,11.679,10.465,19.554,10.465h31.438c8.547,0,15.5-6.953,15.5-15.5v-9.223
		c18.205-3.515,32-19.561,32-38.777v-144C463.042,137.741,445.322,120.021,423.542,120.021z M143.042,111.521
		c0-0.275,0.225-0.5,0.5-0.5h16c0.275,0,0.5,0.225,0.5,0.5v8.5h-17V111.521z M63.042,111.521c0-0.275,0.225-0.5,0.5-0.5h32
		c0.275,0,0.5,0.225,0.5,0.5v8.5h-33V111.521z M86.054,348.235c-1.581,2.371-4.225,3.786-7.073,3.786H47.5
		c-0.275,0-0.5-0.225-0.5-0.5v-8.5h42.529L86.054,348.235z M415.542,352.021h-31.438c-2.849,0-5.493-1.415-7.073-3.785l-3.476-5.215
		h42.487v8.5C416.042,351.796,415.817,352.021,415.542,352.021z M448.042,303.521c0,13.51-10.99,24.5-24.5,24.5h-63.945
		c-0.012,0-0.024,0-0.036,0H103.532c-0.018,0-0.036,0-0.054,0H39.5c-13.51,0-24.5-10.99-24.5-24.5v-144
		c0-13.51,10.99-24.5,24.5-24.5h384.042c13.51,0,24.5,10.99,24.5,24.5V303.521z"/>
</g>
<g>
</g>
<g>
</g>
<g>
</g>
<g>
</g>
<g>
</g>
<g>
</g>
<g>
</g>
<g>
</g>
<g>
</g>
<g>
</g>
<g>
</g>
<g>
</g>
<g>
</g>
<g>
</g>
<g>
</g>
</svg>
