<?xml version="1.0" encoding="iso-8859-1"?>
<!-- Generator: Adobe Illustrator 19.0.0, SVG Export Plug-In . SVG Version: 6.00 Build 0)  -->
<svg version="1.1" id="Capa_1" xmlns="http://www.w3.org/2000/svg" xmlns:xlink="http://www.w3.org/1999/xlink" x="0px" y="0px"
	 viewBox="0 0 463 463" style="enable-background:new 0 0 463 463;" xml:space="preserve">
<g>
	<path d="M231.5,104c-4.143,0-7.5,3.358-7.5,7.5v8c0,4.142,3.357,7.5,7.5,7.5s7.5-3.358,7.5-7.5v-8
		C239,107.358,235.643,104,231.5,104z"/>
	<path d="M231.5,72c-4.143,0-7.5,3.358-7.5,7.5v8c0,4.142,3.357,7.5,7.5,7.5s7.5-3.358,7.5-7.5v-8C239,75.358,235.643,72,231.5,72z"
		/>
	<path d="M334.208,452.146L319,421.73V303h0.5c3.186,0,6.022-2.012,7.077-5.018c1.055-3.005,0.096-6.349-2.392-8.339L287,259.896
		V239.5c0-5.827-3.235-10.908-8-13.555V103.5c0-3.391-0.544-6.742-1.616-9.961l-4.238-12.717c-1.122-3.364-1.122-7.07,0-10.435
		l4.238-12.717c1.072-3.218,1.616-6.569,1.616-9.96V23.5C279,10.542,268.458,0,255.5,0h-48C194.542,0,184,10.542,184,23.5v24.21
		c0,3.391,0.544,6.743,1.616,9.961l4.238,12.717c1.122,3.364,1.122,7.069,0,10.435l-4.238,12.716
		c-1.072,3.218-1.616,6.57-1.616,9.96v122.445c-4.765,2.647-8,7.728-8,13.555v20.396l-37.186,29.748
		c-2.487,1.99-3.446,5.333-2.392,8.339c1.055,3.006,3.892,5.018,7.077,5.018h0.5v118.73l-15.208,30.416
		c-1.163,2.325-1.038,5.086,0.328,7.297c1.366,2.211,3.78,3.557,6.38,3.557h192c2.6,0,5.014-1.346,6.38-3.557
		C335.246,457.232,335.371,454.471,334.208,452.146z M304,416h-49v-9h24.5c4.143,0,7.5-3.358,7.5-7.5s-3.357-7.5-7.5-7.5H255v-89h49
		V416z M223,416V303h17v113H223z M191,256v-16.5c0-0.276,0.225-0.5,0.5-0.5h80c0.275,0,0.5,0.224,0.5,0.5V256H191z M199,103.5
		c0-1.776,0.285-3.532,0.847-5.218l4.238-12.715c2.142-6.424,2.142-13.5,0-19.923l-4.238-12.715
		C199.285,51.243,199,49.487,199,47.71V47h65v0.71c0,1.776-0.285,3.533-0.847,5.218l-4.238,12.715c-2.142,6.424-2.142,13.5,0,19.923
		l4.238,12.715c0.562,1.686,0.847,3.442,0.847,5.218V224h-65V103.5z M207.5,15h48c4.687,0,8.5,3.813,8.5,8.5V32h-65v-8.5
		C199,18.813,202.813,15,207.5,15z M186.131,271h90.738l21.25,17H164.881L186.131,271z M208,303v89h-24.5
		c-4.143,0-7.5,3.358-7.5,7.5s3.357,7.5,7.5,7.5H208v9h-49V303H208z M147.635,448l8.5-17h150.73l8.5,17H147.635z"/>
</g>
<g>
</g>
<g>
</g>
<g>
</g>
<g>
</g>
<g>
</g>
<g>
</g>
<g>
</g>
<g>
</g>
<g>
</g>
<g>
</g>
<g>
</g>
<g>
</g>
<g>
</g>
<g>
</g>
<g>
</g>
</svg>
