<?xml version="1.0" encoding="iso-8859-1"?>
<!-- Generator: Adobe Illustrator 19.0.0, SVG Export Plug-In . SVG Version: 6.00 Build 0)  -->
<svg version="1.1" id="Capa_1" xmlns="http://www.w3.org/2000/svg" xmlns:xlink="http://www.w3.org/1999/xlink" x="0px" y="0px"
	 viewBox="0 0 463 463" style="enable-background:new 0 0 463 463;" xml:space="preserve">
<g>
	<path d="M255.5,0h-48C194.542,0,184,10.542,184,23.5v24.21c0,3.395,0.544,6.747,1.616,9.961l4.238,12.717
		c1.122,3.364,1.122,7.069,0,10.435l-4.237,12.714c-1.073,3.216-1.617,6.568-1.617,9.963v112c0,6.35,3.842,11.814,9.32,14.207
		l5.388,21.553c1.239,4.953,4.771,8.824,9.292,10.627V399.5c0,0.115,0.012,0.226,0.017,0.34
		c-6.751,5.037-11.904,12.212-14.323,20.676l-9.406,32.923c-0.646,2.263-0.193,4.698,1.225,6.577
		c1.417,1.879,3.634,2.983,5.987,2.983h19.328c2.165,0,4.226-0.936,5.649-2.567c2.882-3.301,8.778-5.433,15.022-5.433
		s12.14,2.132,15.021,5.432c1.425,1.632,3.484,2.568,5.65,2.568H271.5c2.354,0,4.57-1.104,5.987-2.983
		c1.418-1.879,1.871-4.314,1.224-6.577l-9.406-32.923c-2.418-8.465-7.571-15.64-14.322-20.677c0.005-0.114,0.017-0.225,0.017-0.34
		V261.887c4.52-1.803,8.052-5.674,9.291-10.628l5.388-21.552c5.479-2.392,9.321-7.856,9.321-14.207v-112
		c0-3.393-0.544-6.745-1.617-9.961l-4.238-12.715c-1.121-3.365-1.121-7.071,0-10.436l4.237-12.714
		c1.074-3.218,1.618-6.57,1.618-9.963V23.5C279,10.542,268.458,0,255.5,0z M207.5,15h48c4.687,0,8.5,3.813,8.5,8.5V32h-65v-8.5
		C199,18.813,202.814,15,207.5,15z M264,47.71c0,1.777-0.285,3.532-0.848,5.218l-4.238,12.716c-2.141,6.423-2.141,13.498,0,19.921
		l4.239,12.718c0.562,1.685,0.847,3.439,0.847,5.216v112c0,0.276-0.225,0.5-0.5,0.5h-8h-56c-0.275,0-0.5-0.224-0.5-0.5v-112
		c0-1.778,0.284-3.533,0.847-5.218l4.238-12.715c2.142-6.424,2.142-13.5,0-19.923l-4.239-12.718
		C199.284,51.244,199,49.489,199,47.71V47h65V47.71z M249.738,247.621c-0.056,0.224-0.255,0.379-0.484,0.379h-35.508
		c-0.23,0-0.43-0.156-0.485-0.378L209.106,231h44.789L249.738,247.621z M261.557,448h-6.332c-5.895-5.059-14.487-8-23.725-8
		c-9.236,0-17.83,2.942-23.725,8h-6.333l6.675-23.363C211.085,414.253,220.7,407,231.5,407s20.415,7.252,23.382,17.637L261.557,448z
		 M231.5,392c-2.9,0-5.746,0.33-8.5,0.947V263h17v129.947C237.246,392.33,234.401,392,231.5,392z"/>
	<path d="M231.5,127c4.143,0,7.5-3.358,7.5-7.5v-8c0-4.142-3.357-7.5-7.5-7.5s-7.5,3.358-7.5,7.5v8
		C224,123.642,227.358,127,231.5,127z"/>
	<path d="M231.5,95c4.143,0,7.5-3.358,7.5-7.5v-8c0-4.142-3.357-7.5-7.5-7.5s-7.5,3.358-7.5,7.5v8C224,91.642,227.358,95,231.5,95z"
		/>
</g>
<g>
</g>
<g>
</g>
<g>
</g>
<g>
</g>
<g>
</g>
<g>
</g>
<g>
</g>
<g>
</g>
<g>
</g>
<g>
</g>
<g>
</g>
<g>
</g>
<g>
</g>
<g>
</g>
<g>
</g>
</svg>
