<svg id="Layer_1" enable-background="new 0 0 512 512" height="512" viewBox="0 0 512 512" width="512" xmlns="http://www.w3.org/2000/svg"><path d="m422.215 151.199c18.723-8.488 31.785-27.34 31.785-49.199 0-11.638-3.713-22.419-10-31.246v-.754c0-38.598-31.402-70-70-70s-70 31.402-70 70c0 13.263 3.827 26.295 10.866 37.433-6.715 6.857-10.866 16.234-10.866 26.567 0 7.147 2.045 14.06 5.722 20h-107.418c3.668-5.924 5.696-12.824 5.696-20 0-10.333-4.151-19.71-10.866-26.567 7.039-11.138 10.866-24.17 10.866-37.433 0-38.598-31.402-70-70-70s-70 31.402-70 70v.754c-6.287 8.827-10 19.608-10 31.246 0 21.859 13.062 40.711 31.785 49.199-9.553 6.909-15.785 18.138-15.785 30.801 0 14.863 8.582 27.752 21.047 33.994-3.151 3.807-5.047 8.689-5.047 14.006 0 12.131 9.869 22 22 22v-12c-5.514 0-10-4.486-10-10s4.486-10 10-10v-12c-14.336 0-26-11.664-26-26s11.664-26 26-26v-12c-23.159 0-42-18.841-42-42s18.841-42 42-42v-12c-11.374 0-21.932 3.543-30.645 9.572 5.706-26.027 28.93-45.572 56.645-45.572 31.981 0 58 26.019 58 58 0 10.869-2.926 21.206-8.513 30.28-5.239-2.728-11.184-4.28-17.487-4.28v12c14.336 0 26 11.664 26 26 0 7.777-3.48 15.08-9.403 20h-13.082l-35.515 35.515v28.485h-16v44h16v68h-32v144h-16v38h332v-38h-16v-144h-32v-68h16v-44h-16v-28.485l-35.515-35.515h-13.088c-5.912-4.921-9.397-12.264-9.397-20 0-14.336 11.664-26 26-26v-12c-6.303 0-12.248 1.552-17.487 4.28-5.587-9.074-8.513-19.411-8.513-30.28 0-31.981 26.019-58 58-58 27.715 0 50.939 19.545 56.645 45.572-8.713-6.029-19.271-9.572-30.645-9.572v12c23.159 0 42 18.841 42 42s-18.841 42-42 42v12c14.336 0 26 11.664 26 26s-11.664 26-26 26v12c5.514 0 10 4.486 10 10s-4.486 10-10 10v12c12.131 0 22-9.869 22-22 0-5.317-1.896-10.199-5.047-14.006 12.465-6.242 21.047-19.131 21.047-33.994 0-12.663-6.232-23.892-15.785-30.801zm-304.215 190.801h20v132h-20zm292 144v14h-308v-14zm-240-204v48h-20v-68h212v68h-20v-48zm160 12v36h-148v-36zm32 48v132h-64.111c12.255-9.908 20.111-25.05 20.111-42 0-29.776-24.224-54-54-54h-6v32c0 3.309-2.691 6-6 6s-6-2.691-6-6v-26c0-12.131-9.869-22-22-22h-24v12c5.514 0 10 4.486 10 10v48c0 16.95 7.856 32.092 20.111 42h-80.111v-132zm-99 100c-12.131 0-22 9.869-22 22 0 1.112.085 2.205.245 3.273-11.568-7.488-19.245-20.497-19.245-35.273v-48c0-3.598-.869-6.998-2.407-10h4.407c5.514 0 10 4.486 10 10v26c0 9.925 8.075 18 18 18s18-8.075 18-18v-19.573c20.327 2.921 36 20.451 36 41.573 0 15.715-8.682 29.434-21.496 36.635.322-1.495.496-3.045.496-4.635 0-12.131-9.869-22-22-22zm10 22c0 5.401-4.307 9.805-9.666 9.983-.447-.007-.894-.013-1.338-.034-5.044-.505-8.996-4.774-8.996-9.949 0-5.514 4.486-10 10-10s10 4.486 10 10zm121-122v132h-20v-132zm-16-112v20h-244v-20zm-16-12h-212v-20h212zm-28.485-52 20 20h-195.03l20-20z"/></svg>