<?xml version="1.0" encoding="iso-8859-1"?>
<!-- Generator: Adobe Illustrator 19.0.0, SVG Export Plug-In . SVG Version: 6.00 Build 0)  -->
<svg version="1.1" id="Capa_1" xmlns="http://www.w3.org/2000/svg" xmlns:xlink="http://www.w3.org/1999/xlink" x="0px" y="0px"
	 viewBox="0 0 463 463" style="enable-background:new 0 0 463 463;" xml:space="preserve">
<g>
	<path d="M287.5,224h-20.894L247,204.394V47.5c0-4.142-3.358-7.5-7.5-7.5H239v-8.5C239,14.131,224.869,0,207.5,0
		S176,14.131,176,31.5v202.445c-4.765,2.647-8,7.728-8,13.555v16c0,5.827,3.235,10.908,8,13.555V407.5
		c0,7.023,3.101,13.332,8,17.641V439.5c0,12.958,10.542,23.5,23.5,23.5s23.5-10.542,23.5-23.5v-14.359c4.899-4.31,8-10.619,8-17.641
		V277.055c4.765-2.647,8-7.728,8-13.555v-16c0-5.827-3.235-10.908-8-13.555v-16.339l17,17V247.5c0,12.958,10.542,23.5,23.5,23.5h8
		c4.142,0,7.5-3.358,7.5-7.5v-32C295,227.358,291.642,224,287.5,224z M224,407.5c0,4.687-3.813,8.5-8.5,8.5h-16
		c-4.687,0-8.5-3.813-8.5-8.5V279h33V407.5z M183.5,264c-0.276,0-0.5-0.224-0.5-0.5v-16c0-0.27,0.216-0.488,0.485-0.497
		c0.005,0,0.01,0.001,0.015,0.001c0.026,0,0.051-0.004,0.077-0.004H231.5c0.276,0,0.5,0.224,0.5,0.5v16c0,0.276-0.224,0.5-0.5,0.5
		H183.5z M191,232V55h13.681C201.716,59.802,200,65.454,200,71.5v136c0,4.142,3.358,7.5,7.5,7.5H224v17H191z M232,55v145h-17V71.5
		c0-9.093,7.394-16.491,16.486-16.499c0.005,0,0.01,0.001,0.014,0.001c0.01,0,0.019-0.001,0.029-0.001H232z M207.5,15
		c9.098,0,16.5,7.402,16.5,16.5V40h-33v-8.5C191,22.402,198.402,15,207.5,15z M216,439.5c0,4.687-3.813,8.5-8.5,8.5
		s-8.5-3.813-8.5-8.5v-8.513c0.167,0.004,0.332,0.013,0.5,0.013h16c0.168,0,0.333-0.009,0.5-0.013V439.5z M280,256h-0.5
		c-4.687,0-8.5-3.813-8.5-8.5V239h9V256z"/>
	<path d="M207.5,327c4.142,0,7.5-3.358,7.5-7.5v-24c0-4.142-3.358-7.5-7.5-7.5s-7.5,3.358-7.5,7.5v24
		C200,323.642,203.358,327,207.5,327z"/>
</g>
<g>
</g>
<g>
</g>
<g>
</g>
<g>
</g>
<g>
</g>
<g>
</g>
<g>
</g>
<g>
</g>
<g>
</g>
<g>
</g>
<g>
</g>
<g>
</g>
<g>
</g>
<g>
</g>
<g>
</g>
</svg>
