<?xml version="1.0" encoding="iso-8859-1"?>
<!-- Generator: Adobe Illustrator 19.0.0, SVG Export Plug-In . SVG Version: 6.00 Build 0)  -->
<svg version="1.1" id="Capa_1" xmlns="http://www.w3.org/2000/svg" xmlns:xlink="http://www.w3.org/1999/xlink" x="0px" y="0px"
	 viewBox="0 0 463 463" style="enable-background:new 0 0 463 463;" xml:space="preserve">
<g>
	<path d="M442.646,320h-58.934l6.636-73H407.5c4.143,0,7.5-3.358,7.5-7.5s-3.357-7.5-7.5-7.5h-15.788l6.636-73H415.5
		c4.143,0,7.5-3.358,7.5-7.5s-3.357-7.5-7.5-7.5h-15.788l6.636-73H423.5c4.143,0,7.5-3.358,7.5-7.5s-3.357-7.5-7.5-7.5H255V39h4.5
		c10.752,0,19.5-8.748,19.5-19.5S270.252,0,259.5,0h-56C192.748,0,184,8.748,184,19.5S192.748,39,203.5,39h4.5v17H39.5
		c-4.143,0-7.5,3.358-7.5,7.5s3.357,7.5,7.5,7.5h17.151l6.636,73H47.5c-4.143,0-7.5,3.358-7.5,7.5s3.357,7.5,7.5,7.5h17.151
		l6.636,73H55.5c-4.143,0-7.5,3.358-7.5,7.5s3.357,7.5,7.5,7.5h17.151l6.636,73H20.353C9.13,320,0,329.13,0,340.353
		c0,10.063,7.513,18.725,17.475,20.148L56,366.005V439.5c0,12.958,10.542,23.5,23.5,23.5h304c12.958,0,23.5-10.542,23.5-23.5
		v-73.495l38.525-5.503c9.962-1.424,17.475-10.085,17.475-20.148C463,329.13,453.869,320,442.646,320z M199,19.5
		c0-2.481,2.019-4.5,4.5-4.5h56c2.481,0,4.5,2.019,4.5,4.5s-2.019,4.5-4.5,4.5h-56C201.019,24,199,21.981,199,19.5z M223,39h17v17
		h-17V39z M391.288,71l-0.818,9H72.531l-0.818-9H391.288z M73.894,95h315.212l-4.455,49H78.349L73.894,95z M383.288,159l-0.818,9
		H80.531l-0.818-9H383.288z M81.894,183h299.212l-4.455,49H86.349L81.894,183z M375.288,247l-0.818,9H88.531l-0.818-9H375.288z
		 M89.894,271h283.212l-4.455,49H94.349L89.894,271z M19.596,345.652C16.976,345.278,15,343,15,340.353
		c0-2.952,2.401-5.353,5.353-5.353H56v15.852L19.596,345.652z M392,439.5c0,4.687-3.813,8.5-8.5,8.5h-304
		c-4.687,0-8.5-3.813-8.5-8.5V335h321V439.5z M443.404,345.652l-36.404,5.2V335h35.646c2.952,0,5.354,2.401,5.354,5.353
		C448,343,446.024,345.278,443.404,345.652z"/>
	<path d="M231.5,352c-21.78,0-39.5,17.72-39.5,39.5s17.72,39.5,39.5,39.5s39.5-17.72,39.5-39.5S253.28,352,231.5,352z M256,391.5
		c0,4.035-0.987,7.841-2.722,11.201l-32.941-33c3.35-1.723,7.143-2.702,11.162-2.702C245.01,367,256,377.991,256,391.5z M207,391.5
		c0-4.035,0.987-7.841,2.722-11.201l32.941,33c-3.35,1.723-7.143,2.702-11.162,2.702C217.99,416,207,405.009,207,391.5z"/>
	<path d="M143.5,368c-12.958,0-23.5,10.542-23.5,23.5s10.542,23.5,23.5,23.5s23.5-10.542,23.5-23.5S156.458,368,143.5,368z
		 M143.5,400c-4.687,0-8.5-3.813-8.5-8.5s3.813-8.5,8.5-8.5s8.5,3.813,8.5,8.5S148.187,400,143.5,400z"/>
	<path d="M327.5,360h-32c-4.143,0-7.5,3.358-7.5,7.5s3.357,7.5,7.5,7.5h32c4.143,0,7.5-3.358,7.5-7.5S331.643,360,327.5,360z"/>
	<path d="M327.5,384h-32c-4.143,0-7.5,3.358-7.5,7.5s3.357,7.5,7.5,7.5h32c4.143,0,7.5-3.358,7.5-7.5S331.643,384,327.5,384z"/>
	<path d="M327.5,408h-32c-4.143,0-7.5,3.358-7.5,7.5s3.357,7.5,7.5,7.5h32c4.143,0,7.5-3.358,7.5-7.5S331.643,408,327.5,408z"/>
</g>
<g>
</g>
<g>
</g>
<g>
</g>
<g>
</g>
<g>
</g>
<g>
</g>
<g>
</g>
<g>
</g>
<g>
</g>
<g>
</g>
<g>
</g>
<g>
</g>
<g>
</g>
<g>
</g>
<g>
</g>
</svg>
