<?xml version="1.0" encoding="iso-8859-1"?>
<!-- Generator: Adobe Illustrator 19.0.0, SVG Export Plug-In . SVG Version: 6.00 Build 0)  -->
<svg version="1.1" id="Capa_1" xmlns="http://www.w3.org/2000/svg" xmlns:xlink="http://www.w3.org/1999/xlink" x="0px" y="0px"
	 viewBox="0 0 463 463" style="enable-background:new 0 0 463 463;" xml:space="preserve">
<g>
	<path d="M151.5,336c-21.78,0-39.5,17.72-39.5,39.5s17.72,39.5,39.5,39.5s39.5-17.72,39.5-39.5S173.28,336,151.5,336z M151.5,400
		c-13.509,0-24.5-10.991-24.5-24.5s10.991-24.5,24.5-24.5s24.5,10.991,24.5,24.5S165.009,400,151.5,400z"/>
	<path d="M455.5,304H423v-9h0.5c4.142,0,7.5-3.358,7.5-7.5s-3.358-7.5-7.5-7.5h-128c-4.142,0-7.5,3.358-7.5,7.5s3.358,7.5,7.5,7.5
		h0.5v9h-17V191h0.5c4.142,0,7.5-3.358,7.5-7.5s-3.358-7.5-7.5-7.5H279v-16.5c0-17.369-14.131-31.5-31.5-31.5H247V85.537
		l12.431-7.65c3.528-2.171,4.627-6.791,2.457-10.318c-2.171-3.527-6.792-4.627-10.318-2.457L247,67.924V47h0.5
		c8.547,0,15.5-6.953,15.5-15.5v-16C263,6.953,256.047,0,247.5,0h-104C134.953,0,128,6.953,128,15.5v16
		c0,8.547,6.953,15.5,15.5,15.5h0.5v81H39.5C22.131,128,8,142.131,8,159.5V176H7.5c-4.142,0-7.5,3.358-7.5,7.5s3.358,7.5,7.5,7.5H8
		v256.5c0,8.547,6.953,15.5,15.5,15.5h240c8.547,0,15.5-6.953,15.5-15.5V351h17v96.5c0,8.547,6.953,15.5,15.5,15.5h96
		c8.547,0,15.5-6.953,15.5-15.5V431h8.5c17.369,0,31.5-14.131,31.5-31.5v-88C463,307.358,459.642,304,455.5,304z M408,295v9h-94.746
		H311v-9H408z M313.739,319.378L317.894,336H311v-17h2.254C313.484,319,313.684,319.156,313.739,319.378z M264,159.5V176H159v-33
		h88.5C256.598,143,264,150.402,264,159.5z M232,128h-54.002L232,94.768V128z M143,31.5v-16c0-0.276,0.224-0.5,0.5-0.5h104
		c0.276,0,0.5,0.224,0.5,0.5v16c0,0.276-0.224,0.5-0.5,0.5h-104C143.224,32,143,31.776,143,31.5z M232,47v30.155l-73,44.923V47H232z
		 M23,159.5c0-9.098,7.402-16.5,16.5-16.5H144v33H23V159.5z M23,447.5V191h57v257H23.5C23.224,448,23,447.776,23,447.5z M264,447.5
		c0,0.276-0.224,0.5-0.5,0.5H95V191h49v73.909c-13.759,3.374-24,15.806-24,30.591c0,17.369,14.131,31.5,31.5,31.5
		s31.5-14.131,31.5-31.5c0-14.785-10.241-27.216-24-30.591V191h105V447.5z M151.5,279c9.098,0,16.5,7.402,16.5,16.5
		s-7.402,16.5-16.5,16.5s-16.5-7.402-16.5-16.5S142.402,279,151.5,279z M279,336v-17h17v17H279z M408,447.5
		c0,0.276-0.224,0.5-0.5,0.5h-96c-0.276,0-0.5-0.224-0.5-0.5V351h16.5c2.31,0,4.49-1.064,5.912-2.884s1.925-4.194,1.364-6.435
		L329.106,319H408V447.5z M448,399.5c0,9.098-7.402,16.5-16.5,16.5H423v-97h25V399.5z"/>
</g>
<g>
</g>
<g>
</g>
<g>
</g>
<g>
</g>
<g>
</g>
<g>
</g>
<g>
</g>
<g>
</g>
<g>
</g>
<g>
</g>
<g>
</g>
<g>
</g>
<g>
</g>
<g>
</g>
<g>
</g>
</svg>
