<?xml version="1.0" encoding="iso-8859-1"?>
<!-- Generator: Adobe Illustrator 19.0.0, SVG Export Plug-In . SVG Version: 6.00 Build 0)  -->
<svg version="1.1" id="Capa_1" xmlns="http://www.w3.org/2000/svg" xmlns:xlink="http://www.w3.org/1999/xlink" x="0px" y="0px"
	 viewBox="0 0 463 463" style="enable-background:new 0 0 463 463;" xml:space="preserve">
<g>
	<path d="M423.5,92H167v-8.5c0-8.547-6.953-15.5-15.5-15.5h-16c-8.547,0-15.5,6.953-15.5,15.5V92h-17v-8.5
		c0-8.547-6.953-15.5-15.5-15.5h-32C46.953,68,40,74.953,40,83.5V92h-0.5C17.72,92,0,109.72,0,131.5v224
		C0,377.28,17.72,395,39.5,395h384c21.78,0,39.5-17.72,39.5-39.5v-224C463,109.72,445.28,92,423.5,92z M135,83.5
		c0-0.275,0.225-0.5,0.5-0.5h16c0.275,0,0.5,0.225,0.5,0.5V92h-17V83.5z M55,83.5c0-0.275,0.225-0.5,0.5-0.5h32
		c0.275,0,0.5,0.225,0.5,0.5V92H55V83.5z M448,355.5c0,13.51-10.99,24.5-24.5,24.5h-384C25.99,380,15,369.01,15,355.5v-224
		c0-13.51,10.99-24.5,24.5-24.5h384c13.51,0,24.5,10.99,24.5,24.5V355.5z"/>
	<path d="M311.5,156c-48.248,0-87.5,39.252-87.5,87.5s39.252,87.5,87.5,87.5s87.5-39.252,87.5-87.5S359.748,156,311.5,156z
		 M311.5,316c-39.977,0-72.5-32.523-72.5-72.5s32.523-72.5,72.5-72.5s72.5,32.523,72.5,72.5S351.477,316,311.5,316z"/>
	<path d="M353.025,212h-83.052c-2.676,0-5.149,1.426-6.49,3.741C258.588,224.194,256,233.793,256,243.5s2.588,19.306,7.483,27.759
		c1.341,2.315,3.814,3.741,6.49,3.741h83.052c2.676,0,5.148-1.426,6.489-3.74c4.897-8.452,7.485-18.052,7.485-27.76
		s-2.588-19.308-7.485-27.76C358.174,213.426,355.701,212,353.025,212z M348.452,260h-73.904c-2.33-5.193-3.548-10.823-3.548-16.5
		s1.218-11.307,3.548-16.5h73.904c2.33,5.192,3.548,10.823,3.548,16.5S350.782,254.808,348.452,260z"/>
	<path d="M315.5,236h-8c-4.143,0-7.5,3.357-7.5,7.5s3.357,7.5,7.5,7.5h8c4.143,0,7.5-3.357,7.5-7.5S319.643,236,315.5,236z"/>
	<path d="M311.5,132C250.019,132,200,182.019,200,243.5S250.019,355,311.5,355S423,304.981,423,243.5S372.981,132,311.5,132z
		 M311.5,340c-53.21,0-96.5-43.29-96.5-96.5s43.29-96.5,96.5-96.5s96.5,43.29,96.5,96.5S364.71,340,311.5,340z"/>
	<path d="M95.5,140c-4.143,0-7.5,3.357-7.5,7.5v192c0,4.143,3.357,7.5,7.5,7.5s7.5-3.357,7.5-7.5v-192
		C103,143.357,99.643,140,95.5,140z"/>
</g>
<g>
</g>
<g>
</g>
<g>
</g>
<g>
</g>
<g>
</g>
<g>
</g>
<g>
</g>
<g>
</g>
<g>
</g>
<g>
</g>
<g>
</g>
<g>
</g>
<g>
</g>
<g>
</g>
<g>
</g>
</svg>
