<?xml version="1.0" encoding="iso-8859-1"?>
<!-- Generator: Adobe Illustrator 19.0.0, SVG Export Plug-In . SVG Version: 6.00 Build 0)  -->
<svg version="1.1" id="Capa_1" xmlns="http://www.w3.org/2000/svg" xmlns:xlink="http://www.w3.org/1999/xlink" x="0px" y="0px"
	 viewBox="0 0 463 463" style="enable-background:new 0 0 463 463;" xml:space="preserve">
<g>
	<path d="M439.5,136H375V87.5c0-8.547-6.953-15.5-15.5-15.5h-26.234c-6.682,0-12.591,4.259-14.704,10.598L314.095,96H148.905
		l-4.467-13.402C142.325,76.259,136.416,72,129.734,72H103.5C94.953,72,88,78.953,88,87.5V136H23.5C10.542,136,0,146.542,0,159.5
		v176C0,348.458,10.542,359,23.5,359H88v8.5c0,12.958,10.542,23.5,23.5,23.5h240c12.958,0,23.5-10.542,23.5-23.5V359h64.5
		c12.958,0,23.5-10.542,23.5-23.5v-176C463,146.542,452.458,136,439.5,136z M71,151h24.5h272H392v56.5c0,4.687-3.813,8.5-8.5,8.5
		h-304c-4.687,0-8.5-3.813-8.5-8.5V151z M103,87.5c0-0.275,0.225-0.5,0.5-0.5h26.234c0.215,0,0.405,0.138,0.474,0.342l6.177,18.53
		c1.021,3.063,3.887,5.128,7.115,5.128h176c3.229,0,6.095-2.065,7.115-5.128l6.177-18.53c0.068-0.204,0.259-0.342,0.474-0.342H359.5
		c0.275,0,0.5,0.225,0.5,0.5V136H103V87.5z M23.5,151H56v56.5c0,12.958,10.542,23.5,23.5,23.5h304c12.958,0,23.5-10.542,23.5-23.5
		V151h32.5c4.687,0,8.5,3.813,8.5,8.5V264H15V159.5C15,154.813,18.813,151,23.5,151z M103,367.5V311h33v65h-24.5
		C106.813,376,103,372.187,103,367.5z M312,311v65H151v-65H312z M360,367.5c0,4.687-3.813,8.5-8.5,8.5H327v-65h33V367.5z M439.5,344
		H375v-33h8.5c4.143,0,7.5-3.357,7.5-7.5s-3.357-7.5-7.5-7.5h-304c-4.143,0-7.5,3.357-7.5,7.5s3.357,7.5,7.5,7.5H88v33H23.5
		c-4.687,0-8.5-3.813-8.5-8.5V279h433v56.5C448,340.187,444.187,344,439.5,344z"/>
	<path d="M359.5,207c12.958,0,23.5-10.542,23.5-23.5S372.458,160,359.5,160S336,170.542,336,183.5S346.542,207,359.5,207z
		 M359.5,175c4.687,0,8.5,3.813,8.5,8.5s-3.813,8.5-8.5,8.5s-8.5-3.813-8.5-8.5S354.813,175,359.5,175z"/>
	<path d="M311.5,198c7.995,0,14.5-6.505,14.5-14.5s-6.505-14.5-14.5-14.5s-14.5,6.505-14.5,14.5S303.505,198,311.5,198z"/>
	<path d="M255.5,191h24c4.143,0,7.5-3.357,7.5-7.5s-3.357-7.5-7.5-7.5h-24c-4.143,0-7.5,3.357-7.5,7.5S251.357,191,255.5,191z"/>
</g>
<g>
</g>
<g>
</g>
<g>
</g>
<g>
</g>
<g>
</g>
<g>
</g>
<g>
</g>
<g>
</g>
<g>
</g>
<g>
</g>
<g>
</g>
<g>
</g>
<g>
</g>
<g>
</g>
<g>
</g>
</svg>
