<?xml version="1.0" encoding="iso-8859-1"?>
<!-- Generator: Adobe Illustrator 19.0.0, SVG Export Plug-In . SVG Version: 6.00 Build 0)  -->
<svg version="1.1" id="Capa_1" xmlns="http://www.w3.org/2000/svg" xmlns:xlink="http://www.w3.org/1999/xlink" x="0px" y="0px"
	 viewBox="0 0 463 463" style="enable-background:new 0 0 463 463;" xml:space="preserve">
<g>
	<path d="M316.347,74.712l-0.66-0.583c1.188-0.912,2.299-1.937,3.306-3.077c4.459-5.051,6.537-11.782,5.701-18.467l-4-32
		C319.227,8.85,309.202,0,297.376,0h-1.714c-0.014,0-0.028,0-0.042,0H167.395c-0.021,0-0.042,0-0.062,0h-1.708
		c-11.827,0-21.852,8.85-23.318,20.585l-4,32c-0.836,6.685,1.242,13.416,5.701,18.467c1.007,1.14,2.118,2.165,3.306,3.077
		l-0.66,0.583C139.883,80.689,136,89.297,136,98.327v22.184c0,16.275,3.251,32.113,9.662,47.073l5.889,13.74
		c5.606,13.083,8.449,26.933,8.449,41.165V391.5c0,39.425,32.075,71.5,71.5,71.5s71.5-32.075,71.5-71.5V222.489
		c0-14.232,2.843-28.082,8.449-41.164l5.889-13.741c6.411-14.96,9.662-30.798,9.662-47.073V98.327
		C327,89.297,323.117,80.689,316.347,74.712z M285.094,15l-2.886,8.658C282.14,23.863,281.949,24,281.734,24H181.266
		c-0.215,0-0.406-0.137-0.474-0.342L177.906,15H285.094z M153.19,54.446l4-32c0.386-3.086,2.411-5.613,5.131-6.767l4.241,12.723
		C168.675,34.741,174.584,39,181.266,39h100.468c6.682,0,12.591-4.259,14.705-10.599l4.241-12.723
		c2.719,1.154,4.745,3.681,5.131,6.767l4,32c0.307,2.454-0.426,4.826-2.062,6.679c-1.637,1.854-3.9,2.875-6.373,2.875H161.625
		c-2.473,0-4.736-1.021-6.373-2.875C153.616,59.272,152.883,56.9,153.19,54.446z M231.5,448c-31.154,0-56.5-25.346-56.5-56.5V279
		h113v112.5C288,422.654,262.654,448,231.5,448z M312,120.511c0,14.232-2.843,28.082-8.449,41.164l-5.889,13.741
		c-6.411,14.96-9.662,30.798-9.662,47.073V264H175v-41.511c0-16.275-3.251-32.113-9.662-47.073l-5.889-13.74
		c-5.606-13.083-8.449-26.933-8.449-41.165V98.327c0-4.73,2.034-9.239,5.58-12.37L164.461,79h134.078l7.881,6.957
		c3.546,3.131,5.581,7.64,5.581,12.37V120.511z"/>
	<path d="M231.5,104c-12.958,0-23.5,10.542-23.5,23.5v40c0,12.958,10.542,23.5,23.5,23.5s23.5-10.542,23.5-23.5v-40
		C255,114.542,244.458,104,231.5,104z M231.5,119c4.687,0,8.5,3.813,8.5,8.5c0,4.687-3.813,8.5-8.5,8.5s-8.5-3.813-8.5-8.5
		C223,122.813,226.813,119,231.5,119z M231.5,176c-4.687,0-8.5-3.813-8.5-8.5v-18.097c2.638,1.027,5.503,1.597,8.5,1.597
		s5.862-0.57,8.5-1.597V167.5C240,172.187,236.187,176,231.5,176z"/>
	<path d="M231.5,209c-7.995,0-14.5,6.505-14.5,14.5s6.505,14.5,14.5,14.5s14.5-6.505,14.5-14.5S239.495,209,231.5,209z"/>
</g>
<g>
</g>
<g>
</g>
<g>
</g>
<g>
</g>
<g>
</g>
<g>
</g>
<g>
</g>
<g>
</g>
<g>
</g>
<g>
</g>
<g>
</g>
<g>
</g>
<g>
</g>
<g>
</g>
<g>
</g>
</svg>
