<?xml version="1.0" encoding="iso-8859-1"?>
<!-- Generator: Adobe Illustrator 19.0.0, SVG Export Plug-In . SVG Version: 6.00 Build 0)  -->
<svg version="1.1" id="Capa_1" xmlns="http://www.w3.org/2000/svg" xmlns:xlink="http://www.w3.org/1999/xlink" x="0px" y="0px"
	 viewBox="0 0 463 463" style="enable-background:new 0 0 463 463;" xml:space="preserve">
<g>
	<path d="M423.5,60H158.091c-3.374-13.759-15.806-24-30.591-24h-64c-14.993,0-27.564,10.532-30.726,24.585
		C14.188,63.788,0,80.013,0,99.5v288C0,409.28,17.72,427,39.5,427h384c21.78,0,39.5-17.72,39.5-39.5v-288
		C463,77.72,445.28,60,423.5,60z M63.5,51h64c9.085,0,16.477,7.382,16.498,16.461c0,0.013-0.002,0.026-0.002,0.039
		c0,0.026,0.004,0.051,0.004,0.077V355.5c0,9.098-7.402,16.5-16.5,16.5h-64c-9.098,0-16.5-7.402-16.5-16.5v-288
		C47,58.402,54.402,51,63.5,51z M448,387.5c0,13.51-10.99,24.5-24.5,24.5h-384C25.99,412,15,401.01,15,387.5v-288
		c0-10.894,7.149-20.146,17-23.321V355.5c0,17.369,14.131,31.5,31.5,31.5h64c17.369,0,31.5-14.131,31.5-31.5V75h264.5
		c13.51,0,24.5,10.99,24.5,24.5V387.5z"/>
	<path d="M391.5,100h-176c-8.547,0-15.5,6.953-15.5,15.5v24c0,8.547,6.953,15.5,15.5,15.5h176c8.547,0,15.5-6.953,15.5-15.5v-24
		C407,106.953,400.047,100,391.5,100z M392,139.5c0,0.275-0.225,0.5-0.5,0.5h-176c-0.275,0-0.5-0.225-0.5-0.5v-24
		c0-0.275,0.225-0.5,0.5-0.5h176c0.275,0,0.5,0.225,0.5,0.5V139.5z"/>
	<path d="M239.5,172h-16c-12.958,0-23.5,10.542-23.5,23.5s10.542,23.5,23.5,23.5h16c12.958,0,23.5-10.542,23.5-23.5
		S252.458,172,239.5,172z M239.5,204h-16c-4.687,0-8.5-3.813-8.5-8.5s3.813-8.5,8.5-8.5h16c4.687,0,8.5,3.813,8.5,8.5
		S244.187,204,239.5,204z"/>
	<path d="M311.5,172h-16c-12.958,0-23.5,10.542-23.5,23.5s10.542,23.5,23.5,23.5h16c12.958,0,23.5-10.542,23.5-23.5
		S324.458,172,311.5,172z M311.5,204h-16c-4.687,0-8.5-3.813-8.5-8.5s3.813-8.5,8.5-8.5h16c4.687,0,8.5,3.813,8.5,8.5
		S316.187,204,311.5,204z"/>
	<path d="M383.5,172h-16c-12.958,0-23.5,10.542-23.5,23.5s10.542,23.5,23.5,23.5h16c12.958,0,23.5-10.542,23.5-23.5
		S396.458,172,383.5,172z M383.5,204h-16c-4.687,0-8.5-3.813-8.5-8.5s3.813-8.5,8.5-8.5h16c4.687,0,8.5,3.813,8.5,8.5
		S388.187,204,383.5,204z"/>
	<path d="M239.5,228h-16c-12.958,0-23.5,10.542-23.5,23.5s10.542,23.5,23.5,23.5h16c12.958,0,23.5-10.542,23.5-23.5
		S252.458,228,239.5,228z M239.5,260h-16c-4.687,0-8.5-3.813-8.5-8.5s3.813-8.5,8.5-8.5h16c4.687,0,8.5,3.813,8.5,8.5
		S244.187,260,239.5,260z"/>
	<path d="M311.5,228h-16c-12.958,0-23.5,10.542-23.5,23.5s10.542,23.5,23.5,23.5h16c12.958,0,23.5-10.542,23.5-23.5
		S324.458,228,311.5,228z M311.5,260h-16c-4.687,0-8.5-3.813-8.5-8.5s3.813-8.5,8.5-8.5h16c4.687,0,8.5,3.813,8.5,8.5
		S316.187,260,311.5,260z"/>
	<path d="M383.5,228h-16c-12.958,0-23.5,10.542-23.5,23.5s10.542,23.5,23.5,23.5h16c12.958,0,23.5-10.542,23.5-23.5
		S396.458,228,383.5,228z M383.5,260h-16c-4.687,0-8.5-3.813-8.5-8.5s3.813-8.5,8.5-8.5h16c4.687,0,8.5,3.813,8.5,8.5
		S388.187,260,383.5,260z"/>
	<path d="M239.5,284h-16c-12.958,0-23.5,10.542-23.5,23.5s10.542,23.5,23.5,23.5h16c12.958,0,23.5-10.542,23.5-23.5
		S252.458,284,239.5,284z M239.5,316h-16c-4.687,0-8.5-3.813-8.5-8.5s3.813-8.5,8.5-8.5h16c4.687,0,8.5,3.813,8.5,8.5
		S244.187,316,239.5,316z"/>
	<path d="M311.5,284h-16c-12.958,0-23.5,10.542-23.5,23.5s10.542,23.5,23.5,23.5h16c12.958,0,23.5-10.542,23.5-23.5
		S324.458,284,311.5,284z M311.5,316h-16c-4.687,0-8.5-3.813-8.5-8.5s3.813-8.5,8.5-8.5h16c4.687,0,8.5,3.813,8.5,8.5
		S316.187,316,311.5,316z"/>
	<path d="M383.5,284h-16c-12.958,0-23.5,10.542-23.5,23.5s10.542,23.5,23.5,23.5h16c12.958,0,23.5-10.542,23.5-23.5
		S396.458,284,383.5,284z M383.5,316h-16c-4.687,0-8.5-3.813-8.5-8.5s3.813-8.5,8.5-8.5h16c4.687,0,8.5,3.813,8.5,8.5
		S388.187,316,383.5,316z"/>
	<path d="M239.5,340h-16c-12.958,0-23.5,10.542-23.5,23.5s10.542,23.5,23.5,23.5h16c12.958,0,23.5-10.542,23.5-23.5
		S252.458,340,239.5,340z M239.5,372h-16c-4.687,0-8.5-3.813-8.5-8.5s3.813-8.5,8.5-8.5h16c4.687,0,8.5,3.813,8.5,8.5
		S244.187,372,239.5,372z"/>
	<path d="M311.5,340h-16c-12.958,0-23.5,10.542-23.5,23.5s10.542,23.5,23.5,23.5h16c12.958,0,23.5-10.542,23.5-23.5
		S324.458,340,311.5,340z M311.5,372h-16c-4.687,0-8.5-3.813-8.5-8.5s3.813-8.5,8.5-8.5h16c4.687,0,8.5,3.813,8.5,8.5
		S316.187,372,311.5,372z"/>
	<path d="M383.5,340h-16c-12.958,0-23.5,10.542-23.5,23.5s10.542,23.5,23.5,23.5h16c12.958,0,23.5-10.542,23.5-23.5
		S396.458,340,383.5,340z M383.5,372h-16c-4.687,0-8.5-3.813-8.5-8.5s3.813-8.5,8.5-8.5h16c4.687,0,8.5,3.813,8.5,8.5
		S388.187,372,383.5,372z"/>
</g>
<g>
</g>
<g>
</g>
<g>
</g>
<g>
</g>
<g>
</g>
<g>
</g>
<g>
</g>
<g>
</g>
<g>
</g>
<g>
</g>
<g>
</g>
<g>
</g>
<g>
</g>
<g>
</g>
<g>
</g>
</svg>
