<?xml version="1.0" encoding="iso-8859-1"?>
<!-- Generator: Adobe Illustrator 19.0.0, SVG Export Plug-In . SVG Version: 6.00 Build 0)  -->
<svg version="1.1" id="Capa_1" xmlns="http://www.w3.org/2000/svg" xmlns:xlink="http://www.w3.org/1999/xlink" x="0px" y="0px"
	 viewBox="0 0 463 463" style="enable-background:new 0 0 463 463;" xml:space="preserve">
<g>
	<path d="M261.6,180.7L261.6,180.7L239,163.75V45.766c9.29-3.138,16-11.93,16-22.266C255,10.542,244.458,0,231.5,0
		S208,10.542,208,23.5c0,10.336,6.71,19.128,16,22.266V163.75l-22.6,16.95c-5.886,4.414-9.4,11.442-9.4,18.8v240
		c0,12.958,10.542,23.5,23.5,23.5h32c12.958,0,23.5-10.542,23.5-23.5v-240C271,192.142,267.485,185.114,261.6,180.7z M231.5,15
		c4.687,0,8.5,3.813,8.5,8.5s-3.813,8.5-8.5,8.5s-8.5-3.813-8.5-8.5S226.813,15,231.5,15z M210.4,192.7l21.1-15.825l21.1,15.825
		c0,0,0,0,0,0c2.129,1.596,3.4,4.138,3.4,6.799V416h-49V199.5C207,196.839,208.271,194.297,210.4,192.7z M247.5,448h-32
		c-4.687,0-8.5-3.813-8.5-8.5V431h49v8.5C256,444.187,252.187,448,247.5,448z"/>
	<path d="M224,245.055V271.5c0,4.142,3.357,7.5,7.5,7.5s7.5-3.358,7.5-7.5v-26.445c4.765-2.647,8-7.728,8-13.555
		c0-8.547-6.953-15.5-15.5-15.5s-15.5,6.953-15.5,15.5C216,237.327,219.235,242.408,224,245.055z"/>
</g>
<g>
</g>
<g>
</g>
<g>
</g>
<g>
</g>
<g>
</g>
<g>
</g>
<g>
</g>
<g>
</g>
<g>
</g>
<g>
</g>
<g>
</g>
<g>
</g>
<g>
</g>
<g>
</g>
<g>
</g>
</svg>
