<?xml version="1.0" encoding="iso-8859-1"?>
<!-- Generator: Adobe Illustrator 19.0.0, SVG Export Plug-In . SVG Version: 6.00 Build 0)  -->
<svg version="1.1" id="Capa_1" xmlns="http://www.w3.org/2000/svg" xmlns:xlink="http://www.w3.org/1999/xlink" x="0px" y="0px"
	 viewBox="0 0 463 463" style="enable-background:new 0 0 463 463;" xml:space="preserve">
<path d="M310.776,453.681l-4.971-19.879C303.186,423.32,293.811,416,283.007,416H255v-32.773c9.701-7.204,16-18.743,16-31.727v-80
	c0-12.99-6.305-24.533-16.013-31.736c0.003-0.089,0.013-0.177,0.013-0.267V23.5C255,10.542,244.458,0,231.5,0S208,10.542,208,23.5
	v215.997c0,0.09,0.01,0.178,0.013,0.267C198.305,246.967,192,258.51,192,271.5v80c0,12.984,6.299,24.523,16,31.727V416h-28.008
	c-10.804,0-20.179,7.32-22.799,17.801l-4.97,19.88c-0.56,2.241-0.057,4.614,1.365,6.435c1.421,1.82,3.602,2.884,5.911,2.884h144
	c2.31,0,4.49-1.064,5.911-2.884C310.833,458.295,311.336,455.921,310.776,453.681z M231.5,15c4.687,0,8.5,3.813,8.5,8.5V48h-17V23.5
	C223,18.813,226.813,15,231.5,15z M223,63h17v169.931c-2.74-0.603-5.582-0.931-8.5-0.931s-5.76,0.328-8.5,0.931V63z M231.5,247
	c13.51,0,24.5,10.991,24.5,24.5v8.5h-49v-8.5C207,257.991,217.99,247,231.5,247z M207,295h17v56.5c0,4.142,3.357,7.5,7.5,7.5
	s7.5-3.358,7.5-7.5V295h17v56.5c0,13.509-10.99,24.5-24.5,24.5S207,365.009,207,351.5V295z M223,390.069
	c2.74,0.603,5.582,0.931,8.5,0.931s5.76-0.328,8.5-0.931V416h-17V390.069z M169.105,448l2.641-10.562
	c0.947-3.791,4.338-6.438,8.246-6.438h103.015c3.908,0,7.299,2.647,8.246,6.439L293.894,448H169.105z"/>
<g>
</g>
<g>
</g>
<g>
</g>
<g>
</g>
<g>
</g>
<g>
</g>
<g>
</g>
<g>
</g>
<g>
</g>
<g>
</g>
<g>
</g>
<g>
</g>
<g>
</g>
<g>
</g>
<g>
</g>
</svg>
